<svg id="Group_23" data-name="Group 23" xmlns="http://www.w3.org/2000/svg" width="42.562" height="175.325" viewBox="0 0 42.562 175.325">
  <path id="Path_9" data-name="Path 9" d="M11.83,3.4,12.17,0C9.126,0,0,6.132,0,23.841,0,40.483,16.01,54.128,16.01,54.128l4.254-13.19S-2.252,15.168,11.83,3.4Z" transform="translate(0 9.146)" fill="#2e2529"/>
  <g id="Group_2" data-name="Group 2" transform="translate(11.64 14.613)">
    <g id="Group_1" data-name="Group 1" transform="translate(0 0)">
      <path id="Path_10" data-name="Path 10" d="M0,0C.447,7.253,5.676,12.979,12.065,12.979S23.687,7.253,24.135,0Z" fill="#2e2529"/>
    </g>
  </g>
  <g id="Group_9" data-name="Group 9" transform="translate(5.083 35.754)">
    <g id="Group_5" data-name="Group 5" transform="translate(28.845 0)">
      <path id="Path_11" data-name="Path 11" d="M8.112,32.039,8.021,1.746,0,0,3.723,32.35Z" fill="#f69784"/>
      <g id="Group_4" data-name="Group 4" transform="translate(2.487 31.728)">
        <path id="Path_12" data-name="Path 12" d="M4.4,0,4.15,22.055l-2.955.076L0,.134Z" transform="translate(1.265 0)" fill="#f69784"/>
        <g id="Group_3" data-name="Group 3" transform="translate(0 21.869)">
          <path id="Path_13" data-name="Path 13" d="M0,.1.169,6.577,4.11,6.47,3.942,0Z" transform="translate(2.037 0)" fill="#f69784"/>
          <path id="Path_14" data-name="Path 14" d="M2.033,0,0,2.922.391,3.5,2.97,1.959,2.933.481Z" transform="translate(0 0.101)" fill="#f69784"/>
        </g>
      </g>
    </g>
    <g id="Group_8" data-name="Group 8" transform="translate(0 0)">
      <path id="Path_15" data-name="Path 15" d="M0,32.039V1.95L8.293,0l-3.9,32.35Z" transform="translate(0.518 0)" fill="#f69784"/>
      <g id="Group_7" data-name="Group 7" transform="translate(0 31.728)">
        <path id="Path_16" data-name="Path 16" d="M0,0,.25,22.055l2.958.076L4.4.134Z" transform="translate(0.482 0)" fill="#f69784"/>
        <g id="Group_6" data-name="Group 6" transform="translate(0 21.869)">
          <path id="Path_17" data-name="Path 17" d="M4.108.1,3.94,6.577,0,6.47.164,0Z" fill="#f69784"/>
          <path id="Path_18" data-name="Path 18" d="M.935,0,2.973,2.922,2.578,3.5,0,1.959.038.481Z" transform="translate(3.175 0.101)" fill="#f69784"/>
        </g>
      </g>
    </g>
  </g>
  <path id="Path_19" data-name="Path 19" d="M4.923,0H0V4.983H15.241Z" transform="translate(25.672 170.342)" fill="#64beab"/>
  <path id="Path_20" data-name="Path 20" d="M10.316,0h4.925V4.983H0Z" transform="translate(7.227 170.342)" fill="#64beab"/>
  <path id="Path_21" data-name="Path 21" d="M10.13,10.385C7.9,12.716,2.979,12.643,0,10.385,1.753,7.533,3.048,4.391,1.3,1.538q3.653-3.077,7.3,0C6.846,4.391,8.376,7.533,10.13,10.385Z" transform="translate(18.759 24.317)" fill="#f69784"/>
  <g id="Group_10" data-name="Group 10" transform="translate(12.17 0)">
    <path id="Path_22" data-name="Path 22" d="M23.071,13.333c0,7.36-5.165,13.333-11.536,13.333S0,20.693,0,13.333,5.167,0,11.535,0,23.071,5.97,23.071,13.333Z" fill="#f69784"/>
  </g>
  <g id="Group_11" data-name="Group 11" transform="translate(20.336 20.556)">
    <path id="Path_23" data-name="Path 23" d="M0,0A3.375,3.375,0,0,0,3.369,3.182,3.377,3.377,0,0,0,6.741,0Z" fill="#fff"/>
  </g>
  <g id="Group_15" data-name="Group 15" transform="translate(16.254 13.891)">
    <path id="Path_24" data-name="Path 24" d="M1.091,0,0,4.949H1.154" transform="translate(6.875 0)" fill="none" stroke="#2e2529" stroke-linecap="round" stroke-linejoin="round" stroke-width="0.7"/>
    <g id="Group_14" data-name="Group 14" transform="translate(0 0.561)">
      <g id="Group_12" data-name="Group 12" transform="translate(11.84 0)">
        <path id="Path_25" data-name="Path 25" d="M3.066.635A2.166,2.166,0,0,0,0,.635" transform="translate(0 0.846)" fill="none" stroke="#2e2529" stroke-linecap="round" stroke-linejoin="round" stroke-width="0.7"/>
        <line id="Line_2" data-name="Line 2" y1="0.847" transform="translate(1.533 0)" fill="none" stroke="#2e2529" stroke-linecap="round" stroke-linejoin="round" stroke-width="0.7"/>
        <line id="Line_3" data-name="Line 3" y1="0.71" x2="0.547" transform="translate(2.503 0.366)" fill="none" stroke="#2e2529" stroke-linecap="round" stroke-linejoin="round" stroke-width="0.7"/>
        <line id="Line_4" data-name="Line 4" x1="0.545" y1="0.71" transform="translate(0 0.366)" fill="none" stroke="#2e2529" stroke-linecap="round" stroke-linejoin="round" stroke-width="0.7"/>
      </g>
      <g id="Group_13" data-name="Group 13">
        <path id="Path_26" data-name="Path 26" d="M3.068.635A2.169,2.169,0,0,0,0,.635" transform="translate(0 0.846)" fill="none" stroke="#2e2529" stroke-linecap="round" stroke-linejoin="round" stroke-width="0.7"/>
        <line id="Line_5" data-name="Line 5" y1="0.847" transform="translate(1.533 0)" fill="none" stroke="#2e2529" stroke-linecap="round" stroke-linejoin="round" stroke-width="0.7"/>
        <line id="Line_6" data-name="Line 6" y1="0.71" x2="0.547" transform="translate(2.505 0.366)" fill="none" stroke="#2e2529" stroke-linecap="round" stroke-linejoin="round" stroke-width="0.7"/>
        <line id="Line_7" data-name="Line 7" x1="0.547" y1="0.71" transform="translate(0 0.366)" fill="none" stroke="#2e2529" stroke-linecap="round" stroke-linejoin="round" stroke-width="0.7"/>
      </g>
    </g>
  </g>
  <path id="Path_27" data-name="Path 27" d="M0,0V5.982H0L6.412,86.9H11.43l.654-80.921H13.31L14.619,86.9h4.919L25.394,5.982h0V0Z" transform="translate(11.058 83.439)" fill="#f69784"/>
  <g id="Group_16" data-name="Group 16" transform="translate(10.131 13.333)">
    <path id="Path_28" data-name="Path 28" d="M4.079,2.039A2.039,2.039,0,1,1,2.04,0,2.039,2.039,0,0,1,4.079,2.039Z" transform="translate(23.07 0)" fill="#f69784"/>
    <path id="Path_29" data-name="Path 29" d="M4.081,2.039A2.04,2.04,0,1,1,2.039,0,2.042,2.042,0,0,1,4.081,2.039Z" fill="#f69784"/>
  </g>
  <path id="Path_30" data-name="Path 30" d="M11.535,0C5.167,0,0,5.97,0,13.333a15.414,15.414,0,0,0,.337,3.193C.682,13,6.73,12.333,13.517,12.2c4.683-.094,6.81-3.809,7.686-6.138A11.244,11.244,0,0,0,11.535,0Z" transform="translate(12.17 0)" fill="#2e2529"/>
  <path id="Path_31" data-name="Path 31" d="M.542,0,.536,0s-2.5,7.052,3.31,11.1a16.02,16.02,0,0,0,.091-1.655A14.385,14.385,0,0,0,.542,0Z" transform="translate(31.304 3.886)" fill="#2e2529"/>
  <path id="Path_32" data-name="Path 32" d="M.885,4.084,0,4.014.311,0l.882.07Z" transform="translate(11.484 8.881)" fill="#64beab"/>
  <path id="Path_33" data-name="Path 33" d="M37.118,22.994,31.078,0H5.9L0,22.994S7.131,28,18.558,28A36.5,36.5,0,0,0,37.118,22.994Z" transform="translate(5.263 83.439)" fill="#333339"/>
  <path id="Path_34" data-name="Path 34" d="M29.808,2.188,19.55,0H9.42L0,2.121.346,9.234H28.6Z" transform="translate(9.339 34.702)" fill="#f69784"/>
  <g id="Group_22" data-name="Group 22" transform="translate(11.163 35.202)">
    <g id="Group_21" data-name="Group 21" transform="translate(0 0)">
      <g id="Group_17" data-name="Group 17" transform="translate(0 8.734)">
        <path id="Path_35" data-name="Path 35" d="M21.584,16.143h0L24.452,4.568,24.827,0H.818l.375,4.568L4.059,16.143h0L0,39.5H25.643Z" fill="#e53671"/>
      </g>
      <g id="Group_20" data-name="Group 20" transform="translate(1.746 0)">
        <g id="Group_18" data-name="Group 18">
          <path id="Path_36" data-name="Path 36" d="M2.688,9.874H0V.552L2.688,0Z" fill="#e53671"/>
        </g>
        <g id="Group_19" data-name="Group 19" transform="translate(19.677 0)">
          <path id="Path_37" data-name="Path 37" d="M2.685,9.874H0V0L2.685.552Z" fill="#e53671"/>
        </g>
      </g>
    </g>
  </g>
</svg>
